<?xml version="1.0" encoding="iso-8859-1"?>
<!-- Generator: Adobe Illustrator 19.1.0, SVG Export Plug-In . SVG Version: 6.00 Build 0)  -->
<svg version="1.1" id="Capa_1" xmlns="http://www.w3.org/2000/svg" xmlns:xlink="http://www.w3.org/1999/xlink" x="0px" y="0px"
	 viewBox="0 0 511.267 511.267" style="enable-background:new 0 0 511.267 511.267;" xml:space="preserve">
<rect x="235.272" y="437.434" width="42.777" height="42.777"/>
<rect x="235.272" y="223.551" width="42.777" height="171.107"/>
<path d="M423.489,165.802C406.378,88.804,335.796,31.056,256.66,31.056c-94.109,0-171.107,76.998-171.107,171.107v2.139
	C42.777,214.996,0,257.772,0,309.104c0,59.887,47.055,106.942,104.803,106.942h85.553v-42.777h-83.414
	c-36.36,0-64.165-27.805-64.165-64.165s27.805-64.165,64.165-64.165h21.388v-42.777c0-70.581,57.749-128.33,128.33-128.33
	c64.165,0,117.636,47.055,126.191,111.22l2.139,14.972l14.972,2.139c40.638,8.555,68.443,42.777,68.443,83.414
	c0,47.055-38.499,85.553-85.553,85.553h-64.165v42.777h64.165c70.581,0,128.33-57.749,128.33-128.33
	C513.32,232.106,474.821,182.913,423.489,165.802L423.489,165.802z"/>
<g>
</g>
<g>
</g>
<g>
</g>
<g>
</g>
<g>
</g>
<g>
</g>
<g>
</g>
<g>
</g>
<g>
</g>
<g>
</g>
<g>
</g>
<g>
</g>
<g>
</g>
<g>
</g>
<g>
</g>
</svg>
