<svg xmlns="http://www.w3.org/2000/svg"
  viewBox="0 0 60 60">
  <defs>
    <linearGradient id="A" x1="3.75" y1="32.14" x2="56.25" y2="32.14" gradientUnits="userSpaceOnUse">
      <stop />
    </linearGradient>
  </defs>
    <path d="M32 19.47v2h14.14v12.3h-7.7v3L36 34.36l-.6-.58h-7.85v-2H30V7.5H11.73v24.28h6v4h1.84l4-4h2v4h9l4 4h1.84v-4h7.7v-16.3zm-9.27 10.3l-.58.6-2.42 2.42v-3h-6V9.5H28v20.28z"/>
    <path d="M56.25 48.75H34l-4 4-4-4H3.75V15.48h4v2h-2v29.27h21L30 50l3.22-3.22h21V15.55h2zm-28.53-4l2.28 2.3 2.28-2.28h20V11.5h-19L30 14.7v2.82l4-4h16.26v29.23h-18.8L30 44.22l-1.46-1.46H9.74V13.5h2v-2h-4v33.27h20zm-7.86-20.1v2.14h2.2v-2.14zm1-11.94A3.71 3.71 0 0 0 17 16.49h2a1.86 1.86 0 0 1 1.9-2 1.89 1.89 0 0 1 1.92 2 2.53 2.53 0 0 1-.65 1.51l-1.53 2a2.91 2.91 0 0 0-.64 2v.68h2v-.6a2 2 0 0 1 .33-1.09l1.5-2.1a4 4 0 0 0 .94-2.41 3.71 3.71 0 0 0-3.92-3.76z"
      fill="url(#A)"/>
    </svg>
